<?xml version="1.0" encoding="utf-8"?>
<!-- Generator: Adobe Illustrator 21.0.0, SVG Export Plug-In . SVG Version: 6.00 Build 0)  -->
<svg version="1.1" id="Calque_1" xmlns="http://www.w3.org/2000/svg" xmlns:xlink="http://www.w3.org/1999/xlink" x="0px" y="0px"
	 viewBox="0 0 1920 1080" style="enable-background:new 0 0 1920 1080;" xml:space="preserve">
<style type="text/css">
	.st0{fill:#FFFFFF;}
</style>
<g>
	<path class="st0" d="M238.6,467.2h36.6l15.8,93l55.4-93h38.8L299.8,607H265L238.6,467.2z"/>
	<path class="st0" d="M399.2,467.2h35.4L405,607h-35.4L399.2,467.2z"/>
	<path class="st0" d="M452.6,467.2h62.8c13.3,0,23.9,3.3,31.7,10c7.8,6.7,11.7,15.7,11.7,27c0,3.5-0.4,7.1-1.2,11
		c-2.1,10.4-6.2,19.3-12.3,26.6c-6.1,7.3-13.6,12.8-22.7,16.4L537,607h-36.4l-13-43.8h-20l-9.2,43.8H423L452.6,467.2z M495.2,533.4
		c7.1,0,12.8-1.4,17.2-4.1c4.4-2.7,7.3-7.4,8.8-14.1c0.5-2.9,0.8-4.9,0.8-5.8c0-4.7-1.6-7.9-4.7-9.7c-3.1-1.8-7.7-2.7-13.7-2.7h-22
		l-7.6,36.4H495.2z"/>
	<path class="st0" d="M624.8,467.2h34.8L685.8,607h-35.2l-5.2-28.8h-51.6L576.6,607h-37.4L624.8,467.2z M642.4,551l-7-47l-27.2,47
		H642.4z"/>
	<path class="st0" d="M729.4,467.2h35.4l-23.4,110h60.8L796,607h-96.2L729.4,467.2z"/>
	<path class="st0" d="M835.6,467.2h61.6c13.2,0,23.9,3.3,32.1,10c8.2,6.7,12.3,15.9,12.3,27.8c0,3.3-0.4,6.9-1.2,10.8
		c-3.3,16-10.4,28.2-21.3,36.7c-10.9,8.5-25.1,12.7-42.7,12.7h-26.2l-8.8,41.8H806L835.6,467.2z M877.2,535.4c8,0,14.1-1.4,18.2-4.2
		c4.1-2.8,7-7.9,8.6-15.4c0.5-2.9,0.8-4.9,0.8-5.8c0-4.8-1.7-8.2-5.2-10.1c-3.5-1.9-8.3-2.9-14.4-2.9h-20.6l-8,38.4H877.2z"/>
	<path class="st0" d="M1222.3,607.5c-8.3-1.7-15-4-19.9-6.9l6.8-31.8c6.4,3.7,13.3,6.5,20.7,8.4c7.4,1.9,14.6,2.8,21.7,2.8
		c7.2,0,12.8-1.2,16.7-3.7c3.9-2.5,5.9-5.9,5.9-10.3c0-3.3-1.6-6.1-4.8-8.4c-3.2-2.3-9.2-5.4-18-9.4c-10-4.5-17.3-9.5-22-14.9
		c-4.7-5.4-7-11.7-7-18.9c0-2.4,0.3-5.4,1-9c2.7-12.4,9.5-22.4,20.4-29.9c10.9-7.5,24.7-11.3,41.4-11.3c8.5,0,16,0.7,22.4,2
		c6.4,1.3,12.3,3.5,17.8,6.4l-6.6,31c-10.3-6.1-21.4-9.2-33.4-9.2c-6.4,0-11.7,1-15.9,3.1c-4.2,2.1-6.8,5-7.7,8.9
		c-0.1,0.5-0.2,1.3-0.2,2.2c0,3.1,1.7,5.7,5.1,8c3.4,2.3,9.5,5.3,18.3,9c10.4,4.7,17.9,9.5,22.4,14.5c4.5,5,6.8,11.1,6.8,18.3
		c0,3.1-0.4,6.5-1.2,10.4c-2.7,13.2-9.2,23.4-19.6,30.5c-10.4,7.1-25.5,10.7-45.4,10.7C1239.2,610,1230.6,609.2,1222.3,607.5z"/>
	<path class="st0" d="M1369.6,497h-39.4l6.4-29.8H1451l-6.4,29.8H1405l-23.2,110h-35.4L1369.6,497z"/>
	<path class="st0" d="M1462,467.2h99.2l-6.4,29.8H1491l-5.4,26.2h46.6l-6,27.8h-46.6l-5.6,26.2h63.8l-6.2,29.8h-99.2L1462,467.2z"/>
	<path class="st0" d="M1575.2,467.2h62.8c13.3,0,23.9,3.3,31.7,10c7.8,6.7,11.7,15.7,11.7,27c0,3.5-0.4,7.1-1.2,11
		c-2.1,10.4-6.2,19.3-12.3,26.6c-6.1,7.3-13.6,12.8-22.7,16.4l14.4,48.8h-36.4l-13-43.8h-20L1581,607h-35.4L1575.2,467.2z
		 M1617.8,533.4c7.1,0,12.8-1.4,17.2-4.1c4.4-2.7,7.3-7.4,8.8-14.1c0.5-2.9,0.8-4.9,0.8-5.8c0-4.7-1.6-7.9-4.7-9.7
		c-3.1-1.8-7.7-2.7-13.7-2.7h-22l-7.6,36.4H1617.8z"/>
</g>
<path class="st0" d="M1180,501.9c8.7-10.7,12.5-24.5,10.5-38.2c-4-26.9-29-45.5-55.9-41.5c-12.1,1.8-23.1,8-30.9,17.5
	c-9.2,11.7-24.5,16.8-38.9,13.1c-34.9-9.7-71,10.7-80.8,45.6c-4.7,17-2.4,35.3,6.5,50.6h23.1c11,0,22-1.8,32.5-5.3l45.2-15
	c2.2-0.7,4.5,0.5,5.2,2.6c0.1,0.4,0.2,0.8,0.2,1.3V553c9.1,0,16.4,7.4,16.4,16.4v16.4c0,9.1-7.4,16.4-16.4,16.4v20.5
	c0,2.3-1.8,4.1-4.1,4.1c-0.4,0-0.9-0.1-1.3-0.2l-45.2-15c-2.9-1-5.8-1.8-8.8-2.5c22,39.6,72,53.7,111.5,31.7
	c39.6-22,53.7-72,31.7-111.5c-0.6-1.1-1.3-2.2-2-3.3C1173.8,518.5,1174.4,508.8,1180,501.9z M1071.9,520.2c0,6.8-5.5,12.3-12.3,12.3
	h-36.9c0,2.3-1.8,4.1-4.1,4.1h-16.4c-2.3,0-4.1-1.8-4.1-4.1v-45.2c0-2.3,1.8-4.1,4.1-4.1h16.4c2.3,0,4.1,1.8,4.1,4.1
	c2.3,0,4.1-1.8,4.1-4.1v-12.3c0-6.8,5.5-12.3,12.3-12.3c6.8,0,12.3,5.5,12.3,12.3v12.3c0,2.3,1.8,4.1,4.1,4.1h4.1
	c6.8,0,12.3,5.5,12.3,12.3V520.2z M1104.8,470.9c0-20.4,16.5-36.9,36.9-36.9s36.9,16.5,36.9,36.9c0,20.4-16.5,36.9-36.9,36.9
	C1121.3,507.9,1104.8,491.3,1104.8,470.9z M1139.4,544.4l-16.4,8.2l-3.7-7.3l16.4-8.2L1139.4,544.4z M1109,539.7l4.1-16.4l8,2
	l-4.1,16.4L1109,539.7z M1113.1,636.1l-4.1-16.4l8-2l4.1,16.4L1113.1,636.1z M1135.8,622.4l-16.4-8.2l3.7-7.3l16.4,8.2L1135.8,622.4
	z M1182.8,571.2c0,3.3-1.3,6.4-3.6,8.7l-18.8,18.8c-1.6,1.6-4.2,1.6-5.8,0l-18.8-18.8c-4.8-4.8-4.8-12.6,0-17.4l1.8-1.8
	c4.2-4.1,10.7-4.8,15.5-1.5l4.4,3l4.4-3c4.9-3.2,11.4-2.6,15.5,1.5l1.7,1.8C1181.5,564.8,1182.8,567.9,1182.8,571.2z"/>
<path class="st0" d="M1171.6,566.6c-1.4-1.4-3.6-1.6-5.2-0.5l-6.7,4.5c-1.4,0.9-3.2,0.9-4.6,0l-6.7-4.5c-1.6-1.1-3.8-0.9-5.2,0.5
	l-1.8,1.8c-1.6,1.6-1.6,4.2,0,5.8l15.9,15.9l15.9-15.9c1.6-1.6,1.6-4.2,0-5.8c0,0,0,0,0,0L1171.6,566.6z"/>
<path class="st0" d="M1104.8,569.5c0-4.5-3.7-8.2-8.2-8.2v32.8c4.5,0,8.2-3.7,8.2-8.2V569.5z"/>
<polygon class="st0" points="1076,542.3 1076,613 1088.4,617.1 1088.4,538.2 "/>
<rect x="985.7" y="557.1" class="st0" width="8.2" height="41"/>
<polygon class="st0" points="986.2,606.4 990.5,651.2 1014.5,651.6 1003.1,606.4 "/>
<path class="st0" d="M1067.8,610.3v-65.2l-19.2,6.4c-11.3,3.8-23.1,5.7-35,5.7h-11.4v41h11.4c11.9,0,23.7,1.9,35,5.7L1067.8,610.3z
	 M1026.8,590h-16.4v-8.2h16.4V590z M1026.8,573.6h-16.4v-8.2h16.4V573.6z"/>
<polygon class="st0" points="1137.6,462.2 1137.6,479.7 1150.7,470.9 "/>
<rect x="1006.3" y="491.5" class="st0" width="8.2" height="36.9"/>
<path class="st0" d="M1059.6,495.6h-4.1c-6.8,0-12.3-5.5-12.3-12.3v-12.3c0-2.3-1.8-4.1-4.1-4.1s-4.1,1.8-4.1,4.1v12.3
	c0,6.8-5.5,12.3-12.3,12.3v28.7h36.9c2.3,0,4.1-1.8,4.1-4.1v-20.5C1063.7,497.4,1061.9,495.6,1059.6,495.6z"/>
<path class="st0" d="M961.1,577.7c0,9.7,6.9,18.2,16.4,20.1v-40.2C968,559.5,961.1,567.9,961.1,577.7z"/>
<path class="st0" d="M1141.7,499.7c15.9,0,28.7-12.9,28.7-28.7s-12.9-28.7-28.7-28.7s-28.7,12.9-28.7,28.7
	C1113,486.8,1125.9,499.7,1141.7,499.7z M1129.4,454.5c0-2.3,1.8-4.1,4.1-4.1c0.8,0,1.6,0.2,2.3,0.7l24.6,16.4
	c1.9,1.3,2.4,3.8,1.1,5.7c-0.3,0.5-0.7,0.8-1.1,1.1l-24.6,16.4c-1.9,1.3-4.4,0.7-5.7-1.1c-0.5-0.7-0.7-1.5-0.7-2.3V454.5z"/>
<path class="st0" d="M957,524.3h8.2c0-55.7,33-90.3,86.2-90.3v-8.2C993.2,425.8,957,463.6,957,524.3z"/>
</svg>
